# xmcd
# 
# Track frame offsets:
#     150
#     15113
#     34961
#     57302
#     75336
#     96722
#     116124
#     132359
#     155702
#     176992
#     195272
#     218166
#     238568
#     262030
#     274146
#     291795
#     306788
# 
# Disc length: 4334
# 
# Revision: 10
# Processed by: cddbd v1.5.2PL0 Copyright (c) Steve Scherf et al.
# Submitted via: fre:ac v1.0.17
# 
DISCID=f610ec11
DTITLE=Various Artist - ONE PIECE MEMORIAL BEST (Disc2)
DYEAR=2010
DGENRE=Anime
TTITLE0=AI-SACHI_BEFORE DAWN
TTITLE1=The Kaleidoscope_fish
TTITLE2=上原多香子_GLORY -君がいるから-
TTITLE3=Janne Da Arc_Shining ray
TTITLE4=Ruppina_Free Will
TTITLE5=Ruppina_FAITH
TTITLE6=ZZ_A to Z ～ONE PIECE Edition～
TTITLE7=Shela_月と太陽
TTITLE8=イクタ☆アイコ_DREAM SHIP
TTITLE9=タッキー&翼_未来航海
TTITLE10=エイジアエンジニア_エターナルポーズ
TTITLE11=TRIPLANE_Dear friends
TTITLE12=東方神起_明日は来るから
TTITLE13=デリカテッセン_ADVENTURE WORLD
TTITLE14=7人の麦わら海賊団_Family ～7人の麦わら海賊団篇～
TTITLE15=麦わらの一味_ビンクスの酒
TTITLE16=9人の麦わら海賊団_A THOUSAND DREAMERS ～9人の麦わら海賊団篇～
EXTD=YEAR: 2010
EXTT0=
EXTT1=
EXTT2=
EXTT3=
EXTT4=
EXTT5=
EXTT6=
EXTT7=
EXTT8=
EXTT9=
EXTT10=
EXTT11=
EXTT12=
EXTT13=
EXTT14=
EXTT15=
EXTT16=
PLAYORDER=
